<svg fill="none" height="30" viewBox="0 0 78 30" width="78" xmlns="http://www.w3.org/2000/svg"><g fill="#394149"><path d="m18.5147 0c-3.0461 0-5.9674 1.21005-8.1213 3.36396l-7.02944 7.02944c-2.15391 2.1539-3.36396 5.0752-3.36396 8.1213 0 6.3432 5.14214 11.4853 11.4853 11.4853 3.0461 0 5.9674-1.2101 8.1213-3.364l4.8623-4.8623c.0001.0001 0-.0001 0 0l14.1671-14.1671c1.0287-1.02869 2.4239-1.6066 3.8787-1.6066 2.4356 0 4.5005 1.58741 5.2164 3.78407l4.4711-4.47111c-2.0397-3.19462-5.6162-5.31296-9.6875-5.31296-3.0461 0-5.9674 1.21005-8.1213 3.36396l-19.0294 19.02944c-1.0287 1.0287-2.4239 1.6066-3.8787 1.6066-3.02946 0-5.4853-2.4558-5.4853-5.4853 0-1.4548.57791-2.85 1.6066-3.8787l7.0294-7.0294c1.0287-1.02869 2.4239-1.6066 3.8787-1.6066 2.4357 0 4.5005 1.58748 5.2164 3.78421l4.4712-4.47114c-2.0397-3.19467-5.6162-5.31307-9.6876-5.31307z"/><path d="m39.364 22.3934c-1.0287 1.0287-2.4239 1.6066-3.8787 1.6066-2.4353 0-4.5-1.587-5.2161-3.7833l-4.471 4.471c2.0398 3.1942 5.6161 5.3123 9.6871 5.3123 3.0461 0 5.9674-1.2101 8.1213-3.364l19.0294-19.0294c1.0287-1.02869 2.4239-1.6066 3.8787-1.6066 3.0295 0 5.4853 2.45584 5.4853 5.4853 0 1.4548-.5779 2.85-1.6066 3.8787l-7.0294 7.0294c-1.0287 1.0287-2.4239 1.6066-3.8787 1.6066-2.4355 0-4.5003-1.5873-5.2163-3.7838l-4.471 4.4711c2.0397 3.1945 5.6161 5.3127 9.6873 5.3127 3.0461 0 5.9674-1.2101 8.1213-3.364l7.0294-7.0294c2.1539-2.1539 3.364-5.0752 3.364-8.1213 0-6.34316-5.1421-11.4853-11.4853-11.4853-3.0461 0-5.9674 1.21005-8.1213 3.36396z"/></g></svg>