<svg viewBox="0 0 271 277" xmlns="http://www.w3.org/2000/svg"><path d="m138.982 0-4.668 14.366h-15.106l12.221 8.88-4.668 14.365 12.221-8.878 12.22 8.878-4.667-14.366 12.22-8.879h-15.105zm59.736 13.989-4.668 14.366h-15.106l12.221 8.88-4.668 14.366 12.221-8.88 12.22 8.88-4.668-14.367 12.221-8.879h-15.106zm30.341 80.644 12.221-8.88 12.221 8.88-4.668-14.367 12.22-8.879h-15.105l-4.668-14.366-4.668 14.366h-15.106l12.221 8.88zm46.995 36.049h-15.106l-4.668-14.367-4.668 14.367h-15.105l12.22 8.878-4.668 14.367 12.221-8.879 12.221 8.879-4.668-14.367zm-30.106 58.438-4.668-14.367-4.668 14.367h-15.106l12.221 8.878-4.668 14.367 12.221-8.879 12.221 8.879-4.668-14.367 12.22-8.878zm-42.563 43.563-4.667-14.367-4.668 14.367h-15.106l12.221 8.878-4.668 14.367 12.221-8.879 12.22 8.879-4.668-14.367 12.221-8.878zm-59.735 15.072-4.668-14.367-4.668 14.367h-15.106l12.221 8.879-4.668 14.366 12.221-8.879 12.22 8.879-4.667-14.366 12.22-8.879zm-59.016-15.072-4.668-14.367-4.667 14.367h-15.106l12.22 8.878-4.667 14.367 12.22-8.879 12.221 8.879-4.668-14.367 12.221-8.878zm-43.537-43.563-4.668-14.367-4.667 14.367h-15.106l12.22 8.878-4.667 14.367 12.22-8.879 12.221 8.879-4.668-14.367 12.221-8.878zm-20.377-44.072 12.22 8.879-4.667-14.367 12.22-8.878h-15.105l-4.668-14.367-4.668 14.367h-15.106l12.22 8.878-4.666 14.367zm15.71-88.027-4.668 14.366h-15.106l12.22 8.88-4.667 14.366 12.22-8.88 12.221 8.88-4.668-14.367 12.221-8.879h-15.106zm43.536-43.032-4.666 14.366h-15.107l12.22 8.88-4.667 14.365 12.22-8.88 12.221 8.88-4.668-14.367 12.221-8.879h-15.106l-4.668-14.364z" fill="#facc15"/><path d="m86.51 175v-67.2h41.568v6.624h-33.504v23.424h30.624v6.528h-30.624v24h33.504v6.624zm78.476 1.152c-4.608 0-8.8-.896-12.576-2.688-3.712-1.856-6.688-4.704-8.928-8.544s-3.36-8.736-3.36-14.688v-42.432h8.064v42.528c0 6.528 1.568 11.264 4.704 14.208s7.232 4.416 12.288 4.416 9.12-1.472 12.192-4.416 4.608-7.68 4.608-14.208v-42.528h8.064v42.432c0 5.952-1.12 10.848-3.36 14.688s-5.248 6.688-9.024 8.544c-3.776 1.792-8 2.688-12.672 2.688z" fill="#fff"/></svg>
