<svg viewBox="0 0 277 277" xmlns="http://www.w3.org/2000/svg"><path d="M139,3l-4.7,14.4h-15.1l12.2,8.9-4.7,14.4,12.2-8.9,12.2,8.9-4.7-14.4,12.2-8.9h-15.1l-4.7-14.4ZM198.7,17l-4.7,14.4h-15.1l12.2,8.9-4.7,14.4,12.2-8.9,12.2,8.9-4.7-14.4,12.2-8.9h-15.1l-4.7-14.4ZM229.1,97.6l12.2-8.9,12.2,8.9-4.7-14.4,12.2-8.9h-15.1l-4.7-14.4-4.7,14.4h-15.1l12.2,8.9-4.7,14.4ZM276.1,133.7h-15.1l-4.7-14.4-4.7,14.4h-15.1l12.2,8.9-4.7,14.4,12.2-8.9,12.2,8.9-4.7-14.4,12.2-8.9ZM245.9,192.1l-4.7-14.4-4.7,14.4h-15.1l12.2,8.9-4.7,14.4,12.2-8.9,12.2,8.9-4.7-14.4,12.2-8.9h-15.1ZM203.4,235.7l-4.7-14.4-4.7,14.4h-15.1l12.2,8.9-4.7,14.4,12.2-8.9,12.2,8.9-4.7-14.4,12.2-8.9h-15.1ZM143.6,250.8l-4.7-14.4-4.7,14.4h-15.1l12.2,8.9-4.7,14.4,12.2-8.9,12.2,8.9-4.7-14.4,12.2-8.9h-15.1ZM84.6,235.7l-4.7-14.4-4.7,14.4h-15.1l12.2,8.9-4.7,14.4,12.2-8.9,12.2,8.9-4.7-14.4,12.2-8.9h-15.1ZM41.1,192.1l-4.7-14.4-4.7,14.4h-15.1l12.2,8.9-4.7,14.4,12.2-8.9,12.2,8.9-4.7-14.4,12.2-8.9h-15.1ZM20.7,148l12.2,8.9-4.7-14.4,12.2-8.9h-15.1l-4.7-14.4-4.7,14.4H.9l12.2,8.9-4.7,14.4,12.2-8.9ZM36.4,60l-4.7,14.4h-15.1l12.2,8.9-4.7,14.4,12.2-8.9,12.2,8.9-4.7-14.4,12.2-8.9h-15.1l-4.7-14.4ZM80,17l-4.7,14.4h-15.1l12.2,8.9-4.7,14.4,12.2-8.9,12.2,8.9-4.7-14.4,12.2-8.9h-15.1l-4.7-14.4h0Z" fill="#facc15"/><path d="M86.5,178v-67.2h41.6v6.6h-33.5v23.4h30.6v6.5h-30.6v24h33.5v6.6h-41.6ZM165,179.2c-4.6,0-8.8-.9-12.6-2.7-3.7-1.9-6.7-4.7-8.9-8.5s-3.4-8.7-3.4-14.7v-42.4h8.1v42.5c0,6.5,1.6,11.3,4.7,14.2s7.2,4.4,12.3,4.4,9.1-1.5,12.2-4.4,4.6-7.7,4.6-14.2v-42.5h8.1v42.4c0,6-1.1,10.8-3.4,14.7s-5.2,6.7-9,8.5c-3.8,1.8-8,2.7-12.7,2.7h0Z" fill="#fff"/></svg>