<svg viewBox="0 0 841.9 1190.6" xmlns="http://www.w3.org/2000/svg"><path d="m567.2 965.1-99-57.2 99-57.2v114.3zm-75.9-57.1 64.3 37.1v-74.2z" fill="#243e90"/><path d="m480 887.5 50.9 29.4 50.9 29.4v-117.5s-50.9 29.4-50.9 29.4l-50.9 29.4zm22.3 0" fill="#ffcd05"/><path d="m272.4 1188.9v-114.3l99 57.2-99 57.2zm11.6-94.2v37.1s0 37.1 0 37.1l64.3-37.1z" fill="#243e90"/><path d="m232.6 1073v58.8s0 58.8 0 58.8l101.8-58.8-50.9-29.4zm11.2 19.3" fill="#ffcd05"/><path d="m492.3 270.8h-114.3l57.2-99 57.2 99zm-94.2-11.5h74.2l-37.1-64.3z" fill="#243e90"/><path d="m484.4 152.7-29.4 50.9-29.4 50.9h117.5s-29.4-50.9-29.4-50.9l-29.4-50.9zm0 22.4" fill="#ffcd05"/><path d="m604.8 582-57.2-99h114.3l-57.2 99zm-37-87.4 37.1 64.3 37.1-64.3z" fill="#243e90"/><path d="m570.7 608.9 29.4-50.9 29.4-50.9h-117.5s29.4 50.9 29.4 50.9l29.4 50.9zm0-22.3" fill="#ffcd05"/><path d="m225.8 137.4-57.2-99h114.3s-57.2 99-57.2 99zm-37.1-87.4 37.1 64.3 37.1-64.3z" fill="#243e90"/><path d="m167 .6 29.4 50.9 29.4 50.9 58.8-101.8h-58.8s-58.8 0-58.8 0zm19.4 11.2" fill="#ffcd05"/></svg>