<svg viewBox="0 0 722.8 226.8" xmlns="http://www.w3.org/2000/svg"><title>Vote Monitor</title><g fill="#231f20"><path d="m431 62.6-12.7 34.6h-6.8l-12.8-34.6h9.1l7 21.4 7-21.4h9.1z"/><path d="m466.6 79.9c0 3.3-.3 6-.8 8.1-.6 2.1-1.6 3.9-3.1 5.4-2.7 2.8-6.2 4.3-10.8 4.3s-8-1.4-10.7-4.3c-1.5-1.6-2.5-3.4-3.1-5.4-.6-2.1-.8-4.8-.8-8.1s.3-5.9.8-8c.6-2.1 1.6-3.9 3.1-5.4 2.7-2.8 6.2-4.3 10.7-4.3s8.1 1.4 10.8 4.3c1.5 1.6 2.5 3.4 3.1 5.4.6 2.1.8 4.7.8 8zm-8.6 0c0-4.3-.7-7-2-8.4-1-1-2.4-1.5-4.1-1.5s-3 .5-4 1.5c-1.3 1.3-2 4.1-2 8.4s.7 7.1 2 8.4c1 1 2.3 1.5 4 1.5s3-.5 4.1-1.5c1.3-1.3 2-4.1 2-8.4z"/><path d="m493.8 97.2h-4.7c-3.3 0-5.8-1-7.5-2.9s-2.6-4.3-2.6-7v-17.1h-3.7v-6.6h3.7v-10.2h8.6v10.2h6.1v6.6h-6.1v16.6c0 2.1 1 3.1 3 3.1h3.1v7.3z"/><path d="m533.2 82.6h-21.7c0 2.3.7 4.2 2 5.6 1.4 1.4 3.2 2.1 5.5 2.1s3.3-.3 4.4-.8 2.3-1.3 3.4-2.5l5.3 5.1c-1.9 1.9-3.8 3.3-5.8 4.2s-4.4 1.3-7.4 1.3-4.2-.3-6-.8c-1.8-.6-3.5-1.5-5-2.8-1.6-1.3-2.8-3.1-3.7-5.5s-1.3-5.3-1.3-8.6c0-5.5 1.4-9.9 4.1-13s6.4-4.7 11-4.7 8.4 1.5 11.1 4.6 4 7.1 4 11.9v3.9zm-8.5-5.9c0-1.4-.3-2.6-.8-3.7-1.1-2.4-3-3.6-5.8-3.6s-4.7 1.2-5.8 3.6c-.5 1.1-.8 2.3-.8 3.7z"/><path d="m445.9 159.6h-5.1v-36l-13 28.5h-4.3l-13.2-28.5v36h-5.1v-47.3h5.1l15.4 33.6 15-33.6h5.1v47.3z"/><path d="m493.5 123.6c.5 2.5.7 6.6.7 12.4s-.2 9.9-.7 12.4-1.7 4.7-3.8 6.7c-3.3 3.3-7.3 4.9-12.1 4.9s-8.8-1.6-12.1-4.9c-2-2-3.3-4.3-3.8-6.7-.5-2.5-.7-6.6-.7-12.4s.2-9.9.7-12.4 1.7-4.7 3.8-6.7c3.3-3.3 7.3-4.9 12.1-4.9s8.8 1.6 12.1 4.9c2 2 3.3 4.3 3.8 6.7zm-4.9 23.2c.4-2.1.6-5.7.6-10.9s-.2-8.8-.6-10.9-1.3-3.8-2.7-5.3c-2.2-2.3-4.9-3.4-8.2-3.4s-6 1.1-8.2 3.4c-1.4 1.5-2.3 3.2-2.7 5.3s-.6 5.7-.6 10.9.2 8.8.6 10.9 1.3 3.8 2.7 5.3c2.2 2.3 4.9 3.4 8.2 3.4s6-1.1 8.2-3.4c1.4-1.5 2.3-3.2 2.7-5.3z"/><path d="m544.4 159.6h-4.8l-25.1-38v38h-5.1v-47.3h4.8l25.1 37.8v-37.8h5.1z"/><path d="m566.5 159.6h-5.1v-47.3h5.1z"/><path d="m611.1 116.8h-13.7v42.8h-5.1v-42.8h-13.7v-4.5h32.4v4.5z"/><path d="m652.5 123.6c.5 2.5.7 6.6.7 12.4s-.2 9.9-.7 12.4-1.7 4.7-3.8 6.7c-3.3 3.3-7.3 4.9-12.1 4.9s-8.8-1.6-12.1-4.9c-2-2-3.3-4.3-3.8-6.7-.5-2.5-.7-6.6-.7-12.4s.2-9.9.7-12.4 1.7-4.7 3.8-6.7c3.3-3.3 7.3-4.9 12.1-4.9s8.8 1.6 12.1 4.9c2 2 3.3 4.3 3.8 6.7zm-4.9 23.2c.4-2.1.6-5.7.6-10.9s-.2-8.8-.6-10.9-1.3-3.8-2.7-5.3c-2.2-2.3-4.9-3.4-8.2-3.4s-6 1.1-8.2 3.4c-1.4 1.5-2.3 3.2-2.7 5.3s-.6 5.7-.6 10.9.2 8.8.6 10.9 1.3 3.8 2.7 5.3c2.2 2.3 4.9 3.4 8.2 3.4s6-1.1 8.2-3.4c1.4-1.5 2.3-3.2 2.7-5.3z"/><path d="m701.5 159.6h-5.9l-10.8-21h-11.4v21h-5.1v-47.3h18.1c4.2 0 7.5 1.2 10.1 3.6s3.9 5.6 3.9 9.6-.9 6.2-2.8 8.4-4.4 3.7-7.5 4.3l11.2 21.5zm-8.5-27.7c1.7-1.5 2.6-3.6 2.6-6.4s-.9-4.9-2.6-6.4-4-2.3-6.8-2.3h-12.6v17.3h12.6c2.9 0 5.2-.7 6.9-2.2z"/></g><path d="m215.9 48.6-39.3 68.1-39.3 68.1h157.3l-39.3-68.1-39.3-68.1zm0 29.9" fill="#5f2d8b"/><path d="m304.7 190.7h-177.6l88.8-153.8zm-157.4-11.7h137.1l-68.5-118.7-68.5 118.7z" fill="#5f2d8b"/><path d="m280.8 48.6-39.3 68.1-39.3 68.1h157.3l-39.3-68.1-39.3-68.1zm0 29.9" fill="#231f20"/><path d="m369.6 190.7h-177.6l88.8-153.8zm-157.3-11.7h137.1l-68.5-118.7-68.5 118.7z" fill="#231f20"/><path d="m110.1 189.9-88.8-153.8h177.6zm-68.5-142.1 68.5 118.7 68.5-118.7z" fill="#231f20"/></svg>