<svg viewBox="0 0 512 512" xmlns="http://www.w3.org/2000/svg" xmlns:xlink="http://www.w3.org/1999/xlink"><clipPath id="a"><path d="m0 0h512v512h-512z"/></clipPath><g clip-path="url(#a)"><path d="m477.8 384a254.8 254.8 0 0 0 34.2-128c0-46.6-12.5-90.3-34.2-128h-443.6a254.8 254.8 0 0 0 -34.2 128c0 46.6 12.5 90.3 34.2 128z" fill="#ffda44"/><path d="m256 512a256 256 0 0 1 -230.4-144h460.6a256 256 0 0 1 -230.2 144h-.1zm0-512a256 256 0 0 0 -230.3 144h460.6a256 256 0 0 0 -230.3-144z" fill="#d80027"/><path d="m144 304h-16v-80h16zm128 0h16v-80h-16z" fill="#eee"/><path d="m122 248a4 4 0 1 0 0 8h172a4 4 0 1 0 0-8zm0 24a4 4 0 1 0 0 8h28a4 4 0 1 0 0-8zm144 0a4 4 0 1 0 0 8h28a4 4 0 1 0 0-8z" fill="#d80027"/><path clip-rule="evenodd" d="m196 168c-7 0-13 5-15 11l-5-1c-9 0-16 7-16 16s7 16 16 16c7 0 13-4 15-11a16 16 0 0 0 17-4 16 16 0 0 0 17 4 16 16 0 1 0 10-20 16 16 0 0 0 -27-5c-3-4-7-6-12-6zm0 8c5 0 8 4 8 8 0 5-3 8-8 8-4 0-8-3-8-8 0-4 4-8 8-8zm24 0c5 0 8 4 8 8 0 5-3 8-8 8-4 0-8-3-8-8 0-4 4-8 8-8zm-44 10 4 1 4 8c0 4-4 7-8 7s-8-3-8-8c0-4 4-8 8-8zm64 0c5 0 8 4 8 8 0 5-3 8-8 8-4 0-8-3-8-7l4-8zm-32 142c26.5 0 48-14.3 48-32 0-9.6-6.3-18.1-16.3-24h16.3v-48h-48v40c-26.5 0-48 14.3-48 32s21.5 32 48 32z" fill="#eee" fill-rule="evenodd"/><path d="m200 160h16v32h-16z" fill="#ff9811"/><path clip-rule="evenodd" d="m248 208-8 8h-64l-8-8c0-13 18-24 40-24s40 11 40 24zm-112-16a8 8 0 0 1 8 8v8a8 8 0 0 1 -16 0v-8a8 8 0 0 1 8-8zm144 0a8 8 0 0 1 8 8v8a8 8 0 0 1 -16 0v-8a8 8 0 0 1 8-8zm-72 80v24a24 24 0 0 0 48 0v-24zm0 0h-48v-48h48zm34-30a10 10 0 1 0 -20 0v12a10 10 0 1 0 20 0z" fill="#d80027" fill-rule="evenodd"/><path clip-rule="evenodd" d="m128 208h16a8 8 0 0 1 0 16h-16a8 8 0 0 1 0-16zm144 0h16a8 8 0 0 1 0 16h-16a8 8 0 0 1 0-16zm-128 96h-16a8 8 0 0 0 0 16h16a8 8 0 0 0 0-16zm128 0h16a8 8 0 0 1 0 16h-16a8 8 0 0 1 0-16zm-112-32v24c0 8 4 14 9 19l5-6 5 10c3.3.8 6.7.8 10 0l5-10 5 6c6-5 9-11 9-19v-24h-9l-5 8-5-8h-10l-5 8-5-8zm8-32v-8h32v8h-8v16h8v8h-32v-8h8v-16zm72-24h-64v8h64z" fill="#ff9811" fill-rule="evenodd"/><path d="m169 272v43c3 2 6.4 3.4 10 4v-47zm20 0v47c3.6-.6 7-2 10-4v-43z" fill="#d80027"/><g clip-rule="evenodd" fill-rule="evenodd"><path d="m186 208a6 6 0 1 0 0-12 6 6 0 0 0 0 12zm22 0a6 6 0 1 0 0-12 6 6 0 0 0 0 12zm28-6a6 6 0 1 1 -12 0 6 6 0 0 1 12 0z" fill="#ffda44"/><path d="m208 288a16 16 0 1 0 0-32 16 16 0 0 0 0 32zm80 32h-16a8 8 0 0 0 0 16h16a8 8 0 0 0 0-16zm-160 0h16a8 8 0 0 1 0 16h-16a8 8 0 0 1 0-16z" fill="#0052b4"/></g></g></svg>