<svg viewBox="0 0 512 512" xmlns:xlink="http://www.w3.org/1999/xlink"><circle cx="256" cy="256" fill="#0052b4" r="256"/><path d="m256 100.2 8.3 25.5h26.7l-21.7 15.7 8.3 25.6-21.7-15.8-21.7 15.8 8.3-25.6-21.7-15.7h26.8zm-110.2 45.6 24 12.2 18.9-19-4.2 26.5 23.9 12.2-26.5 4.2-4.2 26.5-12.2-24-26.5 4.3 19-19zm-45.6 110.2 25.5-8.3v-26.7l15.7 21.7 25.6-8.3-15.8 21.7 15.8 21.7-25.6-8.3-15.7 21.7v-26.8zm45.6 110.2 12.2-24-19-18.9 26.5 4.2 12.2-23.9 4.2 26.5 26.5 4.2-24 12.2 4.3 26.5-19-19zm110.2 45.6-8.3-25.5h-26.7l21.7-15.7-8.3-25.6 21.7 15.8 21.7-15.8-8.3 25.6 21.7 15.7h-26.8zm110.2-45.6-24-12.2-18.9 19 4.2-26.5-23.9-12.2 26.5-4.2 4.2-26.5 12.2 24 26.5-4.3-19 19zm45.6-110.2-25.5 8.3v26.7l-15.7-21.7-25.6 8.3 15.8-21.7-15.8-21.7 25.6 8.3 15.7-21.7v26.8zm-45.6-110.2-12.2 24 19 18.9-26.5-4.2-12.2 23.9-4.2-26.5-26.5-4.2 24-12.2-4.3-26.5 19 19z" fill="#ffda44"/></svg>