<svg viewBox="0 0 512 512" xmlns="http://www.w3.org/2000/svg"><circle cx="256" cy="256" fill="#338af3" r="256"/><g clip-rule="evenodd" fill-rule="evenodd"><path d="m504 192c5.2 20.5 8 41.9 8 64h-512c0-22.1 2.8-43.5 8-64zm-78.8-128c20.8 18.3 38.5 40 52.5 64h-443.5c14-24 31.7-45.7 52.5-64h338.6zm52.5 320a254.4 254.4 0 0 0 26.1-64h-495.7a254.4 254.4 0 0 0 26.1 64h443.6zm-52.5 64h-338.5a255 255 0 0 0 169.3 64 255 255 0 0 0 169.3-64z" fill="#eee"/><path d="m8 320a256 256 0 0 1 312-312v312z" fill="#338af3"/><path d="m128 34.2a254.4 254.4 0 0 1 64-26.1v119.9h128v64h-128v128h-64v-128h-120a254.4 254.4 0 0 1 26.2-64h93.8z" fill="#eee"/></g></svg>