<svg viewBox="0 0 512 512" xmlns="http://www.w3.org/2000/svg"><path d="m482.2 376c19-35.8 29.8-76.6 29.8-120s-10.8-84.2-29.8-120h-452.4a254.9 254.9 0 0 0 -29.8 120c0 43.4 10.8 84.2 29.8 120z" fill="#eee"/><path d="m496.5 344a256.1 256.1 0 0 1 -481 0z" fill="#0052b4"/><path d="m496.5 168h-481a256.1 256.1 0 0 1 481 0z" fill="#d80027"/><path d="m338.5 181.7h-55l9.2-68.7 36.6-27.5 36.7 27.5v55zm-165 0h55l-9.2-68.7-36.6-27.5-36.7 27.5v55z" fill="#338af3"/><path d="m292.7 181.7h-73.4v-68.7l36.7-27.5 36.7 27.5z" fill="#0052b4"/><path d="m146 168v110a110 110 0 0 0 220 0v-110z" fill="#eee"/><path d="m146 168v110a110 110 0 0 0 220 0v-110z" fill="#eee"/><path clip-rule="evenodd" d="m146 212h44v44h44v-44h-44v-44h-44zm88-44v44h44v44h44v-44h44v-44h-44v44h-44v-44zm132 88h-44v44h-44v-44h-44v44h44v44h-44v41.8c7 1.4 14.4 2.2 21.9 2.2h.2c7.5 0 14.8-.8 21.9-2.2v-41.8h44v22c8.3-6.3 15.7-13.7 22-22h-22v-44h41.8a114 114 0 0 0 2.2-22zm-176 110v-22h44v-44h-44v-44h-44v22c0 7.5.8 14.9 2.2 22h41.8v44h-22c6.3 8.3 13.7 15.7 22 22z" fill="#d80027" fill-rule="evenodd"/></svg>