<svg viewBox="0 0 512 512" xmlns="http://www.w3.org/2000/svg"><path d="m376 29.8a254.9 254.9 0 0 0 -120-29.8c-43.4 0-84.2 10.8-120 29.8v452.4c35.8 19 76.6 29.8 120 29.8s84.2-10.8 120-29.8z" fill="#d80027"/><path d="m344 15.5a256.1 256.1 0 0 1 0 481z" fill="#d80027"/><path d="m168 15.5v481a256.1 256.1 0 0 1 0-481z" fill="#496e2d"/><path d="m167 345a89 89 0 1 0 0-178 89 89 0 0 0 0 178z" fill="#ffda44"/><path d="m116.9 211.5v55.5a50 50 0 1 0 100.1 0v-55.6h-100z" fill="#d80027"/><path d="m167 283.8c-9.2 0-16.7-7.5-16.7-16.7v-22.1h33.4v22c0 9.2-7.5 16.7-16.7 16.7z" fill="#eee"/></svg>