<svg viewBox="0 0 512 512" xmlns="http://www.w3.org/2000/svg"><path d="m482.2 376c19-35.8 29.8-76.6 29.8-120s-10.8-84.2-29.8-120h-452.4a254.9 254.9 0 0 0 -29.8 120c0 43.4 10.8 84.2 29.8 120z" fill="#0052b4"/><path d="m496.5 344a256.1 256.1 0 0 1 -481 0z" fill="#d80027"/><path d="m496.5 168h-481a256.1 256.1 0 0 1 481 0z" fill="#eee"/><path d="m222.6 202.7v-102.5h-133.6v102.5z" fill="#0052b4"/><path d="m89 167v22.2c0 51.1 66.8 66.8 66.8 66.8s66.8-15.7 66.8-66.8v-22.2l-22.3 22.2-44.5-33.4-44.5 33.4z" fill="#eee"/></svg>