<svg viewBox="0 0 512 512" xmlns="http://www.w3.org/2000/svg"><path d="m482.2 376c19-35.8 29.8-76.6 29.8-120s-10.8-84.2-29.8-120h-452.4a254.9 254.9 0 0 0 -29.8 120c0 43.4 10.8 84.2 29.8 120z" fill="#0052b4"/><path d="m496.5 344a256.1 256.1 0 0 1 -481 0z" fill="#d80027"/><path d="m496.5 168h-481a256.1 256.1 0 0 1 481 0z" fill="#eee"/><path d="m66.2 144.7v127.7c0 72.6 94.9 94.9 94.9 94.9s94.9-22.3 94.9-94.9v-127.7z" fill="#eee"/><path d="m88.5 144.7v127.7a54 54 0 0 0 5.6 24.1h134a53.6 53.6 0 0 0 5.6-24.1v-127.7z" fill="#d80027"/><path d="m205.6 233.7h-33.4v-22.2h22.3v-22.3h-22.3v-22.2h-22.2v22.2h-22.3v22.3h22.3v22.2h-33.4v22.3h33.4v22.3h22.2v-22.3h33.4z" fill="#eee"/><path d="m124.5 327.6a160 160 0 0 0 36.6 16.6c7.5-2.3 22.3-7.6 36.6-16.6a80 80 0 0 0 30.4-31 38.8 38.8 0 0 0 -31.3-6.2 39 39 0 0 0 -71.4 0 39 39 0 0 0 -31.3 6.1 80 80 0 0 0 30.4 31.1z" fill="#0052b4"/></svg>